<?xml version="1.0" encoding="UTF-8"?>
<svg width="2691px" height="3153px" viewBox="0 0 2691 3153" version="1.1" xmlns="http://www.w3.org/2000/svg" xmlns:xlink="http://www.w3.org/1999/xlink">
    <title>iStock-1182701566 (1)</title>
    <g id="Page-1" stroke="none" stroke-width="1" fill="none" fill-rule="evenodd">
        <g id="iStock-1182701566-(1)" fill-rule="nonzero">
            <g id="g12" transform="translate(1345.500000, 1576.240000) scale(-1, 1) rotate(-180.000000) translate(-1345.500000, -1576.240000) translate(0.000000, 0.240000)">
                <polyline id="path14" points="2690.23984 0.239837819 0.239837819 0.239837819 0.239837819 3151.23984 2690.23984 3151.23984 2690.23984 0.239837819"></polyline>
                <path d="M1898.90657,2372.1599 C1632.90658,2394.7199 1471.93325,2298.57323 1396.75992,2235.57324 C1389.29325,2223.57324 1382.11992,2211.45324 1375.21325,2199.25324 C1334.70659,2128.34657 1304.95992,2052.95991 1281.78659,1976.09324 C1258.79992,1899.10658 1243.09325,1820.11991 1232.58659,1740.11991 C1231.34659,1730.09325 1230.19992,1720.06658 1228.83992,1710.06658 L1226.86659,1695.07992 C1226.34659,1690.05325 1226.03992,1684.97325 1225.61326,1679.93325 C1224.09326,1659.70658 1222.11992,1639.55992 1220.37326,1619.38658 L1217.46659,1558.43992 L1216.63992,1543.21325 L1216.21326,1535.59992 L1216.15992,1527.94659 L1215.87992,1497.29325 L1215.35992,1466.65325 L1215.06659,1451.33326 C1214.95992,1446.22659 1215.29326,1441.07992 1215.37326,1435.95992 L1216.53326,1374.38659 C1216.27992,1353.85326 1218.14659,1333.25326 1218.95992,1312.65326 L1221.81326,1250.74659 C1223.49326,1230.10659 1225.10659,1209.42659 1226.51992,1188.7066 C1228.10659,1168.01326 1228.98659,1147.2266 1231.47992,1126.51993 C1233.59992,1105.7866 1235.50659,1084.9866 1237.42659,1064.17327 L1240.18659,1032.89327 L1243.91992,1001.6666 C1246.42659,980.839934 1248.62659,959.933268 1250.91992,938.999935 C1252.07992,928.519935 1252.86659,917.986602 1254.29325,907.546602 L1258.45325,876.146603 C1261.21325,855.199937 1263.73325,834.159937 1266.19992,813.066605 L1269.81325,781.373272 L1274.23992,749.786606 C1277.07992,728.666607 1279.87992,707.506607 1282.37325,686.213274 C1284.86659,664.919942 1287.14659,643.519942 1290.15992,622.253276 C1295.89325,579.653277 1301.03992,536.693278 1304.23992,492.866613 C1282.59992,530.786612 1262.90659,569.599944 1243.81325,608.759943 C1233.79992,628.199943 1225.77326,648.279942 1216.99992,668.199942 C1208.38659,688.159941 1200.07992,708.253274 1191.82659,728.39994 L1179.59992,758.693273 C1175.78659,768.879939 1172.26659,779.159939 1168.58659,789.399939 C1161.35992,809.919938 1154.17326,830.479938 1147.23992,851.146604 L1136.83992,882.17327 C1133.43992,892.533269 1130.63992,903.079936 1127.53326,913.533269 C1121.61326,934.533268 1115.59992,955.546601 1109.90659,976.639934 L1101.31993,1008.3066 L1094.01326,1040.33327 C1089.30659,1061.71993 1084.58659,1083.13326 1080.06659,1104.61326 C1075.21326,1126.01326 1071.85326,1147.75993 1068.38659,1169.47993 C1064.82659,1191.19993 1061.47993,1212.95993 1058.19993,1234.74659 C1056.59993,1245.65326 1055.65326,1256.67993 1054.46659,1267.65326 L1051.07993,1300.63993 L1047.87993,1333.65326 C1046.63993,1344.62659 1046.21326,1355.71992 1045.62659,1366.81326 L1042.71993,1433.34659 C1042.58659,1438.89326 1042.21326,1444.42659 1042.27993,1449.99992 L1042.42659,1466.71992 L1042.75993,1500.15992 C1042.57326,1544.69325 1046.79993,1589.47992 1050.17326,1634.07992 C1053.07993,1656.38658 1055.78659,1678.70658 1058.91993,1700.94658 C1059.71993,1706.51992 1060.39993,1712.07992 1061.29326,1717.63992 L1064.39993,1734.27991 C1066.45326,1745.38658 1068.70659,1756.43991 1070.85326,1767.50658 C1088.90659,1855.90658 1116.17326,1943.19991 1155.23992,2025.47991 C1191.34659,2101.67991 1237.25325,2173.82657 1294.07992,2235.90657 C1218.74659,2298.90657 1057.86659,2394.69323 792.333266,2372.1599 C199.253281,2321.85323 -76.3067122,1724.67992 19.2266187,1230.82659 C179.773281,400.933282 977.466595,270.639952 1345.61325,0.466624955 C1713.77324,270.639952 2511.46656,400.933282 2672.01322,1230.82659 C2767.54655,1724.67992 2491.97322,2321.85323 1898.90657,2372.1599" id="path16" fill="#F97F51"></path>
                <path d="M2085.74657,3046.97322 C2085.74657,3046.97322 2067.4399,2995.21322 1939.46657,2960.46655 C1914.3199,2953.63988 1775.38657,2939.63988 1746.67991,2935.06655 C1582.47991,2908.95989 1485.95992,2830.11989 1408.17325,2712.35989 C1425.37325,2662.02656 1465.03992,2535.50656 1485.06658,2387.10657 C1530.03991,2390.37323 1581.39991,2400.1599 1638.18658,2420.6799 C1798.07991,2478.42656 1939.1599,2565.15989 2016.81324,2716.38656 C2061.38657,2803.17322 2090.90657,2942.30655 2085.74657,3046.97322" id="path18" fill="#27AE60"></path>
                <path d="M1437.94658,2307.7199 C1435.81325,2334.30657 1432.81325,2360.58657 1429.21325,2386.2399 L1429.21325,2386.2399 C1429.17325,2386.5199 1429.13325,2386.7999 1429.09325,2387.0799 C1428.73325,2389.57323 1428.37325,2392.06657 1428.01325,2394.54657 C1427.91992,2395.1999 1427.82658,2395.85323 1427.73325,2396.50657 C1427.26658,2399.6799 1426.78658,2402.85323 1426.29325,2406.01323 C1426.22658,2406.4399 1426.15992,2406.85323 1426.09325,2407.2799 C1425.67992,2409.97323 1425.25325,2412.65323 1424.82658,2415.33323 C1424.66658,2416.2799 1424.51992,2417.22656 1424.35992,2418.17323 C1424.01325,2420.3199 1423.65325,2422.46657 1423.30658,2424.5999 C1423.11992,2425.6799 1422.93325,2426.7599 1422.75992,2427.8399 C1422.41325,2429.85323 1422.06658,2431.86656 1421.71992,2433.8799 C1421.53325,2434.9599 1421.34658,2436.05323 1421.15992,2437.13323 C1420.79992,2439.14656 1420.45325,2441.1599 1420.09325,2443.1599 C1419.90658,2444.1999 1419.71992,2445.2399 1419.53325,2446.26656 C1419.14658,2448.38656 1418.75992,2450.49323 1418.37325,2452.58656 C1418.21325,2453.4799 1418.03992,2454.37323 1417.87992,2455.26656 C1417.39992,2457.82656 1416.91992,2460.37323 1416.42658,2462.90656 C1416.34658,2463.3199 1416.26658,2463.73323 1416.19992,2464.13323 C1415.59992,2467.18656 1415.01325,2470.22656 1414.41325,2473.2399 C1414.39992,2473.34656 1414.37325,2473.45323 1414.34658,2473.54656 C1413.78658,2476.37323 1413.22658,2479.18656 1412.65325,2481.97323 C1412.50658,2482.70656 1412.35992,2483.41323 1412.21325,2484.13323 C1411.75992,2486.3199 1411.31992,2488.49323 1410.86658,2490.66656 C1410.67992,2491.5199 1410.50658,2492.37323 1410.31992,2493.22656 C1409.89325,2495.26656 1409.46658,2497.29323 1409.02658,2499.30656 C1408.83992,2500.17323 1408.66658,2501.0399 1408.47992,2501.89323 C1408.03992,2503.94656 1407.58658,2505.97323 1407.14658,2507.9999 C1406.97325,2508.77323 1406.79992,2509.5599 1406.62658,2510.34656 C1406.14658,2512.53323 1405.65325,2514.70656 1405.17325,2516.86656 C1405.03992,2517.45323 1404.90658,2518.05323 1404.77325,2518.6399 C1402.86658,2527.06656 1400.93325,2535.33323 1398.99992,2543.38656 C1398.91992,2543.69323 1398.85325,2544.01323 1398.77325,2544.31989 C1398.21325,2546.66656 1397.63992,2548.98656 1397.07992,2551.27989 C1396.95992,2551.77323 1396.83992,2552.25323 1396.71992,2552.74656 C1396.18658,2554.89323 1395.65325,2557.02656 1395.13325,2559.14656 C1394.99992,2559.63989 1394.87992,2560.14656 1394.74658,2560.63989 C1394.21325,2562.78656 1393.67992,2564.91989 1393.13325,2567.03989 C1393.02658,2567.43989 1392.93325,2567.85323 1392.82658,2568.25323 C1392.22658,2570.58656 1391.62658,2572.90656 1391.03992,2575.19989 C1390.99992,2575.34656 1390.95992,2575.50656 1390.91992,2575.65323 C1388.26658,2585.83989 1385.63992,2595.59989 1383.06658,2604.89323 C1383.05325,2604.91989 1383.05325,2604.94656 1383.03992,2604.95989 C1382.41325,2607.25323 1381.77325,2609.51989 1381.14658,2611.75989 C1381.13325,2611.81323 1381.11992,2611.87989 1381.09325,2611.93323 C1366.79992,2662.71989 1354.38659,2698.50656 1349.91992,2710.98656 C1327.50659,2749.99989 1299.30659,2790.75989 1263.85325,2832.33322 C1115.13326,3006.71988 904.613263,3116.31988 676.933269,3142.59988 C546.253272,3157.67988 390.799943,3156.29321 261.146613,3100.13321 C261.146613,3100.13321 343.893277,3103.54655 448.453275,2958.51988 C468.999941,2930.02655 535.199939,2820.74655 592.373271,2725.61322 C760.533267,2445.7599 959.159929,2391.94657 1284.58659,2365.54657 C1301.42659,2364.18657 1318.01325,2363.25323 1334.18659,2362.8399 L1392.29325,2364.09323 L1412.21325,2302.7999 L1442.70658,2300.46657 L1441.65325,2308.01323 L1437.94658,2307.7199" id="path20" fill="#27AE60"></path>
            </g>
        </g>
    </g>
</svg>